<svg width="217" height="55" viewBox="0 0 217 55" fill="none" xmlns="http://www.w3.org/2000/svg">
<g clip-path="url(#clip0_45_1232)">
<path d="M56.3622 44.3519C52.1061 49.9735 46.5615 53.6125 39.6833 54.9164C30.1616 56.7215 21.7851 54.192 14.8384 47.4181C10.612 43.2968 7.99258 38.2152 7.13294 32.3523C5.75168 22.932 8.48174 14.801 15.275 8.13709C19.4092 4.08153 24.4388 1.61659 30.1782 0.789411C37.7903 -0.307684 44.7542 1.44729 50.8916 6.08881C56.3032 10.1814 59.7551 15.6204 61.1358 22.2697C62.8023 30.2954 61.1741 37.6648 56.3622 44.3519ZM19.1673 25.5214C19.3171 25.0575 19.4669 24.5936 19.6238 24.1077C16.5974 23.0088 13.6023 21.9213 10.5852 20.8258C9.18775 25.5707 9.14941 30.2741 10.5009 34.8801C12.8239 34.7187 15.0692 34.5628 17.3537 34.4041C17.6494 31.4549 18.2776 28.4991 19.1673 25.5214ZM58.9352 25.8502C58.8085 24.1915 58.4922 22.5701 58.0454 21.0749C55.7398 21.2357 53.4941 21.3924 51.2094 21.5518C50.8489 25.0128 50.0657 28.4502 48.9342 31.8537C51.9562 32.9515 54.9499 34.039 57.9643 35.1341C58.8648 32.1059 59.2099 29.0535 58.9352 25.8502ZM14.1527 13.5666C13.1208 15.02 12.2329 16.5527 11.5475 18.2368C14.5615 19.3348 17.5412 20.4202 20.5537 21.5176C21.8742 18.1697 23.5037 15.0306 25.4413 12.1604C23.7893 10.5754 22.1618 9.01396 20.5105 7.42966C18.0755 9.02957 15.9591 11.0889 14.1527 13.5666ZM43.7952 44.5063C45.3296 45.7198 46.6929 47.1093 47.9429 48.6074C52.0432 45.8482 55.0532 42.2499 57.0178 37.7284C53.9962 36.6275 51.0197 35.543 48.0061 34.445C46.6748 37.784 45.0679 40.9373 43.0466 43.8974C43.2926 44.0978 43.5181 44.2815 43.7952 44.5063ZM31.392 25.4583C32.069 25.7055 32.7461 25.9526 33.4575 26.2123C34.44 23.5143 35.4158 20.8349 36.4067 18.1139C33.3483 16.9257 30.4858 15.4354 27.7561 13.6608C25.8624 16.4424 24.3623 19.3661 23.1439 22.4648C25.8964 23.4666 28.6091 24.4538 31.392 25.4583ZM42.2611 40.0061C43.4611 37.9184 44.5301 35.7678 45.4147 33.4948C41.9633 32.242 38.5461 31.0016 35.1025 29.7516C34.1133 32.4696 33.1388 35.1468 32.1533 37.8545C35.2183 39.0369 38.075 40.5188 40.8215 42.3175C41.3014 41.5461 41.7628 40.8045 42.2611 40.0061ZM48.0112 21.1319C44.9341 20.7769 41.9422 20.0399 38.9896 19.0735C38 21.7913 37.0251 24.4685 36.0445 27.1614C39.5141 28.4202 42.9279 29.6588 46.3609 30.9043C47.4079 27.7141 48.1436 24.5185 48.4785 21.2148C48.3287 21.1885 48.2105 21.1678 48.0112 21.1319ZM30.1521 35.296C30.9355 33.146 31.7189 30.996 32.5178 28.8034C29.0716 27.5523 25.6462 26.3087 22.1999 25.0576C21.1472 28.2396 20.4157 31.4338 20.0803 34.7382C23.3304 35.127 26.4639 35.8749 29.5657 36.8882C29.7588 36.3702 29.946 35.868 30.1521 35.296ZM23.5675 49.8435C23.8891 50.1029 24.2106 50.3624 24.5672 50.65C25.9289 46.9083 27.2714 43.2198 28.6275 39.4936C25.7689 38.5436 22.8994 37.8409 19.9261 37.5062C19.9149 37.5926 19.8979 37.6664 19.8967 37.7405C19.8643 39.7649 20.0058 41.7761 20.4608 43.7517C20.9819 46.0139 21.8109 48.1316 23.5675 49.8435ZM30.0331 51.3729C31.4961 50.9961 32.8055 50.3001 34.0419 49.4496C36.0114 48.0949 37.6447 46.3941 39.1695 44.5244C36.6308 42.8932 34.0037 41.5259 31.2116 40.4418C29.855 44.164 28.5166 47.836 27.1674 51.5376C28.1471 51.7228 29.0545 51.5863 30.0331 51.3729ZM32.7748 13.4418C34.2769 14.1588 35.7791 14.8759 37.3174 15.6102C38.7059 11.7993 40.0475 8.11682 41.3952 4.4177C40.4261 4.28097 39.501 4.33051 38.5219 4.61272C34.624 5.73623 31.9032 8.43044 29.3343 11.4799C30.5011 12.1487 31.6062 12.7821 32.7748 13.4418ZM47.1895 9.39241C46.4834 7.7741 45.5313 6.35171 43.9829 5.34213C42.629 9.06234 41.2881 12.7471 39.9341 16.4677C42.7827 17.4106 45.6573 18.1186 48.652 18.452C48.6895 15.3378 48.4004 12.3264 47.1895 9.39241ZM44.3195 48.6998C43.3711 47.8298 42.4227 46.9599 41.4527 46.07C39.3114 48.7382 36.951 51.0093 33.9412 52.7416C38.1132 52.7737 41.9065 51.8568 45.5389 50.0254C45.1294 49.5795 44.7471 49.1632 44.3195 48.6998ZM31.0495 3.44354C28.2399 3.80985 25.5844 4.65883 22.9325 6.0105C24.3528 7.34855 25.7045 8.622 27.0858 9.92335C29.2252 7.22932 31.5984 4.9722 34.5017 3.30593C34.4822 3.26149 34.4627 3.21706 34.4432 3.17262C33.3395 3.26075 32.2358 3.34888 31.0495 3.44354ZM55.8158 18.5122C56.2233 18.4505 56.6308 18.3887 57.0456 18.3259C55.8382 15.1331 51.8157 9.77309 50.0075 8.97065C51.1607 12.1154 51.4627 15.3575 51.4154 18.7617C52.8872 18.6778 54.31 18.5967 55.8158 18.5122ZM17.1301 45.8278C17.5739 46.2284 18.0176 46.6289 18.4614 47.0295C17.4018 43.8644 17.0893 40.6219 17.1473 37.3338C16.1067 37.1631 12.2401 37.3611 11.5167 37.7046C12.8574 40.7534 14.6854 43.4628 17.1301 45.8278Z" fill="#D7D7D7"/>
<path d="M120.232 26.559C120.232 28.4523 120.232 30.2993 120.232 32.2015C119.363 32.2015 118.521 32.207 117.679 32.1996C117.082 32.1944 116.382 32.3589 115.918 32.1031C115.471 31.8565 115.263 31.1699 114.956 30.6733C112.647 26.9447 110.34 23.2152 107.974 19.3919C107.974 23.7101 107.974 27.9295 107.974 32.1751C106.703 32.1751 105.48 32.1751 104.248 32.1751C104.248 26.1989 104.248 20.2409 104.248 14.2414C105.618 14.2414 106.97 14.2306 108.321 14.2576C108.463 14.2604 108.638 14.4632 108.733 14.6139C111.216 18.5603 113.692 22.5121 116.169 26.4628C116.246 26.5867 116.326 26.7094 116.491 26.8093C116.491 22.6307 116.491 18.452 116.491 14.2574C117.757 14.2574 118.97 14.2574 120.232 14.2574C120.232 18.3526 120.232 22.4327 120.232 26.559Z" fill="#D7D7D7"/>
<path d="M183.641 23.2887C184.393 24.4866 185.126 25.6565 185.86 26.8264C185.886 26.8221 185.913 26.8177 185.94 26.8133C185.94 22.641 185.94 18.4687 185.94 14.2691C187.207 14.2691 188.417 14.2691 189.662 14.2691C189.662 20.2253 189.662 26.1917 189.662 32.2019C188.292 32.2019 186.925 32.2109 185.558 32.1871C185.43 32.1848 185.271 31.9973 185.184 31.8591C182.72 27.9028 180.262 23.9417 177.804 19.9814C177.7 19.8146 177.595 19.6489 177.427 19.3819C177.427 23.7147 177.427 27.9368 177.427 32.1803C176.17 32.1803 174.96 32.1803 173.722 32.1803C173.722 26.2226 173.722 20.2665 173.722 14.2701C173.817 14.2618 173.933 14.2432 174.049 14.2429C175.22 14.2408 176.392 14.2521 177.563 14.2343C177.86 14.2298 178.028 14.3156 178.188 14.5739C179.991 17.4748 181.808 20.3666 183.641 23.2887Z" fill="#227443"/>
<path d="M206.832 18.3338C205.607 19.8428 204.403 21.3262 203.197 22.8125C205.57 25.9213 207.941 29.0265 210.365 32.2017C209.195 32.2017 208.101 32.1209 207.024 32.2247C205.965 32.3268 205.336 31.9603 204.741 31.0794C203.37 29.0523 201.856 27.123 200.432 25.131C200.131 24.7097 199.823 24.4827 199.304 24.5661C199.124 24.595 198.935 24.5707 198.712 24.5707C198.712 27.1018 198.712 29.6205 198.712 32.1705C197.452 32.1705 196.231 32.1705 194.989 32.1705C194.989 26.2078 194.989 20.25 194.989 14.2668C196.208 14.2668 197.418 14.2668 198.662 14.2668C198.662 16.5782 198.662 18.8996 198.662 21.2865C199.07 21.2865 199.449 21.3077 199.824 21.2743C199.945 21.2634 200.077 21.1275 200.165 21.0178C201.883 18.88 203.599 16.7409 205.303 14.5919C205.502 14.3402 205.699 14.2277 206.03 14.2328C207.367 14.2536 208.704 14.2415 210.147 14.2415C209.011 15.6439 207.932 16.9761 206.832 18.3338Z" fill="#227443"/>
<path d="M126.98 22.8326C127.998 20.0652 129.006 17.3323 130.008 14.5975C130.086 14.385 130.145 14.2292 130.438 14.233C131.855 14.2514 133.272 14.2413 134.724 14.2413C136.923 20.2166 139.121 26.1885 141.334 32.2016C140.107 32.2016 138.924 32.2095 137.742 32.1887C137.632 32.1867 137.473 32.0227 137.427 31.9002C137.01 30.7823 136.614 29.6569 136.2 28.5018C135.328 28.5018 134.452 28.5018 133.575 28.5018C132.065 28.5018 130.555 28.5101 129.045 28.4947C128.751 28.4916 128.626 28.5768 128.53 28.8635C128.155 29.9791 127.744 31.0825 127.347 32.1896C126.083 32.1896 124.837 32.1896 123.533 32.1896C124.685 29.0623 125.826 25.9644 126.98 22.8326ZM132.493 17.9353C132.447 17.9518 132.369 17.957 132.359 17.9864C132.092 18.7226 131.832 19.461 131.573 20.1996C130.972 21.9073 130.373 23.6152 129.762 25.3527C131.55 25.3527 133.298 25.3527 135.104 25.3527C134.238 22.8816 133.381 20.4363 132.493 17.9353Z" fill="#D7D7D7"/>
<path d="M95.5965 19.8069C95.5965 17.9301 95.5965 16.0995 95.5965 14.2554C96.8566 14.2554 98.0716 14.2554 99.3172 14.2554C99.3257 14.3726 99.3417 14.4905 99.3417 14.6085C99.343 18.3223 99.3513 22.0361 99.3389 25.7499C99.3335 27.4019 99.0056 28.9578 97.8897 30.266C97.0341 31.2691 95.9366 31.8513 94.685 32.1603C92.721 32.6451 90.7613 32.608 88.8819 31.8321C86.585 30.8838 85.3699 29.0496 85.3087 26.6251C85.2057 22.544 85.2738 18.4586 85.271 14.3751C85.271 14.3471 85.2864 14.3191 85.3018 14.2665C86.5058 14.2665 87.7163 14.2665 88.9831 14.2665C88.9831 14.4199 88.9831 14.5835 88.9831 14.7472C88.9831 18.2144 88.9771 21.6817 88.9893 25.1489C88.9912 25.6851 89.0157 26.2347 89.1338 26.7545C89.5347 28.5197 91.045 29.4305 92.9433 29.0989C94.4959 28.8276 95.4791 27.7744 95.5354 26.1384C95.6074 24.0451 95.5807 21.9484 95.5965 19.8069Z" fill="#D7D7D7"/>
<path d="M153.454 14.2417C154.178 14.2417 154.855 14.2417 155.583 14.2417C155.583 19.1285 155.583 24.0022 155.583 28.9039C157.479 28.9039 159.324 28.9039 161.205 28.9039C161.205 30.0009 161.205 31.071 161.205 32.1715C158.128 32.1715 155.026 32.1715 151.902 32.1715C151.902 26.2115 151.902 20.2545 151.902 14.2417C152.405 14.2417 152.906 14.2417 153.454 14.2417Z" fill="#227443"/>
<path d="M74.9232 14.2417C75.4618 14.2417 75.954 14.2417 76.4971 14.2417C76.4971 19.1285 76.4971 24.0022 76.4971 28.9039C78.3931 28.9039 80.2386 28.9039 82.1191 28.9039C82.1191 30.0009 82.1191 31.071 82.1191 32.1715C79.0424 32.1715 75.9397 32.1715 72.8164 32.1715C72.8164 26.2115 72.8164 20.2545 72.8164 14.2417C73.5042 14.2417 74.1906 14.2417 74.9232 14.2417Z" fill="#D7D7D7"/>
<path d="M168.439 23.7842C168.439 26.6012 168.439 29.3719 168.439 32.1721C167.203 32.1721 165.982 32.1721 164.742 32.1721C164.742 26.2105 164.742 20.2567 164.742 14.2722C165.96 14.2722 167.181 14.2722 168.439 14.2722C168.439 17.4317 168.439 20.5848 168.439 23.7842Z" fill="#227443"/>
<path d="M166.755 40.3134C167.205 37.9819 167.205 37.9819 167.517 37.9541C167.26 39.0817 167.009 40.2024 166.746 41.3207C166.726 41.405 166.63 41.4715 166.57 41.5463C166.511 41.4563 166.418 41.3734 166.397 41.2752C166.198 40.3605 166.011 39.4431 165.758 38.5195C165.576 39.4027 165.397 40.2869 165.205 41.1681C165.176 41.3011 165.085 41.4204 165.022 41.546C164.953 41.4285 164.849 41.3191 164.819 41.1921C164.56 40.1195 164.315 39.0436 164.066 37.9687C164.111 37.9435 164.156 37.9183 164.201 37.8931C164.262 37.9971 164.354 38.0942 164.379 38.2062C164.576 39.0903 164.761 39.9774 165.015 40.8764C165.248 39.8911 165.481 38.9058 165.715 37.9205C165.764 37.9164 165.812 37.9123 165.861 37.9083C166.088 38.8626 166.315 39.8169 166.542 40.7712C166.571 40.7706 166.6 40.7701 166.629 40.7696C166.669 40.6309 166.708 40.4922 166.755 40.3134Z" fill="#D7D7D7"/>
<path d="M191.528 40.1029C191.628 40.3046 191.709 40.4757 191.79 40.6467C191.829 40.638 191.867 40.6293 191.906 40.6207C191.906 39.7254 191.906 38.8302 191.906 37.9349C191.952 37.9201 191.998 37.9054 192.043 37.8906C192.097 37.9761 192.196 38.0612 192.197 38.1473C192.207 39.2705 192.204 40.3938 192.094 41.5998C191.977 41.4877 191.817 41.3967 191.751 41.2601C191.42 40.5677 191.115 39.8628 190.797 39.1638C190.731 39.0196 190.652 38.8817 190.497 38.7627C190.497 39.6771 190.497 40.5915 190.497 41.5059C190.444 41.5257 190.392 41.5455 190.339 41.5653C190.29 41.4634 190.2 41.3619 190.199 41.2595C190.189 40.1672 190.193 39.0749 190.193 37.8101C190.394 37.9742 190.548 38.0409 190.605 38.1557C190.919 38.788 191.21 39.4321 191.528 40.1029Z" fill="#D7D7D7"/>
<path d="M92.956 41.2355C92.9066 41.3674 92.8572 41.4566 92.8078 41.5458C92.7109 41.4706 92.5707 41.4158 92.5241 41.3168C92.1911 40.6088 91.8783 39.8912 91.5563 39.1779C91.4898 39.0308 91.4119 38.8888 91.2467 38.7609C91.2467 39.6804 91.2467 40.5998 91.2467 41.5193C91.2025 41.536 91.1583 41.5527 91.1141 41.5694C91.0582 41.4877 90.9544 41.4065 90.9536 41.3243C90.9428 40.2037 90.9463 39.083 90.9463 37.9624C90.9845 37.9334 91.0226 37.9044 91.0607 37.8755C91.1663 37.9752 91.3111 38.0556 91.371 38.1778C91.7092 38.8664 92.0256 39.5657 92.3529 40.2598C92.4145 40.3905 92.4914 40.5139 92.6587 40.6208C92.6587 39.7259 92.6587 38.8311 92.6587 37.9362C92.719 37.9225 92.7792 37.9088 92.8395 37.8951C92.8783 38.0089 92.9499 38.1224 92.9509 38.2365C92.9598 39.2218 92.9561 40.2073 92.956 41.2355Z" fill="#D7D7D7"/>
<path d="M159.89 40.793C159.826 41.0694 160.028 41.3857 159.644 41.6216C159.644 40.3355 159.644 39.1448 159.644 37.954C159.674 37.9265 159.703 37.8989 159.733 37.8713C159.833 37.9786 159.968 38.0694 160.03 38.1957C160.433 39.0204 160.82 39.8529 161.324 40.6729C161.324 39.8578 161.319 39.0426 161.33 38.2277C161.331 38.1156 161.41 38.0044 161.452 37.8929C161.496 37.9109 161.54 37.929 161.584 37.9471C161.584 39.1279 161.584 40.3087 161.584 41.4895C161.553 41.5215 161.522 41.5534 161.491 41.5854C161.373 41.4705 161.212 41.3765 161.146 41.2373C160.75 40.3967 160.375 39.5458 159.89 38.7127C159.89 39.3913 159.89 40.0699 159.89 40.793Z" fill="#D7D7D7"/>
<path d="M93.6732 40.8825C93.6459 41.1406 93.6185 41.3543 93.5912 41.568C93.5364 41.5551 93.4816 41.5422 93.4268 41.5293C93.4268 40.3389 93.4268 39.1484 93.4268 37.7891C93.609 37.979 93.7445 38.0675 93.8056 38.1924C94.2098 39.0188 94.5981 39.853 95.0924 40.6813C95.0924 40.1913 95.0913 39.7012 95.0928 39.2112C95.0939 38.8724 95.0882 38.533 95.108 38.1952C95.114 38.0927 95.1949 37.9945 95.2415 37.8944C95.28 37.9096 95.3185 37.9249 95.3569 37.9401C95.3569 39.1343 95.3569 40.3285 95.3569 41.5227C95.3255 41.5487 95.294 41.5747 95.2626 41.6006C95.148 41.4819 94.9921 41.3826 94.9257 41.2412C94.53 40.3993 94.1549 39.5476 93.6732 38.7129C93.6732 39.4213 93.6732 40.1298 93.6732 40.8825Z" fill="#D7D7D7"/>
<path d="M185.85 38.6046C185.85 38.9545 185.85 39.261 185.85 39.5818C186.289 39.5818 186.702 39.5818 187.167 39.5818C187.167 39.0309 187.167 38.4871 187.167 37.9433C187.216 37.9247 187.265 37.9062 187.315 37.8877C187.37 37.981 187.472 38.0739 187.473 38.1678C187.484 39.2152 187.484 40.2629 187.472 41.3104C187.471 41.3998 187.361 41.488 187.302 41.5768C187.259 41.5559 187.216 41.535 187.174 41.5141C187.174 40.98 187.174 40.4459 187.174 39.8909C186.728 39.8909 186.317 39.8909 185.894 39.8909C185.852 40.4432 185.811 40.9909 185.762 41.5379C185.761 41.5401 185.651 41.5323 185.56 41.5275C185.56 40.3932 185.558 39.2703 185.567 38.1475C185.567 38.071 185.658 37.9952 185.706 37.919C185.755 37.9944 185.832 38.065 185.846 38.1463C185.869 38.2809 185.851 38.4225 185.85 38.6046Z" fill="#D7D7D7"/>
<path d="M90.5821 40.4859C90.5527 41.3328 90.3292 41.5904 89.651 41.601C89.0116 41.6109 88.7079 41.334 88.695 40.6947C88.682 40.0492 88.681 39.4031 88.6965 38.7578C88.7109 38.1606 89.0206 37.8915 89.6501 37.8894C90.2445 37.8874 90.5492 38.1539 90.5705 38.738C90.5913 39.3061 90.5796 39.8754 90.5821 40.4859ZM88.9869 40.8737C89.1109 41.2612 89.3847 41.3958 89.7712 41.3348C90.1885 41.2689 90.3126 40.9807 90.314 40.6057C90.3161 40.0223 90.327 39.4386 90.3114 38.8556C90.2986 38.375 90.0661 38.1338 89.6591 38.1282C89.2234 38.1222 88.9732 38.3698 88.9659 38.8592C88.9562 39.5036 88.971 40.1484 88.9869 40.8737Z" fill="#D7D7D7"/>
<path d="M146.992 40.6157C146.992 39.708 146.992 38.8458 146.992 37.9881C147.712 37.8025 148.396 37.9397 148.601 38.3273C148.844 38.7884 148.723 39.1904 148.314 39.5418C148.835 39.9196 149.121 40.3991 148.813 41.0066C148.424 41.7755 147.679 41.4928 146.992 41.5619C146.992 41.236 146.992 40.9487 146.992 40.6157ZM147.262 40.7507C147.262 40.9151 147.262 41.0795 147.262 41.2755C147.748 41.255 148.27 41.4181 148.533 40.928C148.655 40.7016 148.654 40.2985 148.53 40.074C148.266 39.5951 147.75 39.731 147.262 39.7195C147.262 40.0565 147.262 40.359 147.262 40.7507ZM148.396 38.5291C148.149 38.0311 147.696 38.2217 147.284 38.1792C147.284 38.6081 147.284 39.0148 147.284 39.4197C148.286 39.526 148.507 39.3645 148.396 38.5291Z" fill="#D7D7D7"/>
<path d="M146.365 39.4164C146.415 38.8853 146.262 38.3765 146.571 37.9079C146.593 37.986 146.632 38.0641 146.633 38.1423C146.637 38.9725 146.643 39.8028 146.631 40.6328C146.622 41.3033 146.312 41.6059 145.676 41.6027C145.048 41.5996 144.75 41.2926 144.743 40.6121C144.735 39.723 144.741 38.8336 144.741 37.9444C144.792 37.928 144.842 37.9116 144.893 37.8953C144.935 38.0056 145.013 38.1154 145.015 38.2263C145.026 39.0256 145.021 39.8251 145.022 40.6246C145.023 40.9675 145.148 41.2159 145.513 41.3023C145.95 41.4058 146.295 41.2018 146.337 40.752C146.376 40.325 146.358 39.8925 146.365 39.4164Z" fill="#D7D7D7"/>
<path d="M194.451 38.8484C194.414 38.9543 194.376 39.0265 194.339 39.0986C194.283 39.0093 194.192 38.9251 194.179 38.8299C194.097 38.2433 193.949 38.0995 193.441 38.1188C193.068 38.1331 192.86 38.3234 192.851 38.6857C192.836 39.3933 192.834 40.1018 192.851 40.8092C192.859 41.1727 193.079 41.3689 193.449 41.3635C193.817 41.3582 194.135 41.2645 194.166 40.8213C194.183 40.5614 194.169 40.2993 194.169 40.0115C193.925 39.9803 193.672 39.948 193.419 39.9156C193.42 39.8675 193.421 39.8193 193.422 39.7712C193.75 39.7712 194.077 39.7712 194.434 39.7712C194.434 40.1224 194.465 40.5221 194.426 40.9146C194.379 41.3869 194.057 41.6011 193.497 41.6026C192.953 41.6041 192.609 41.3745 192.586 40.8967C192.55 40.129 192.55 39.3572 192.585 38.5894C192.607 38.113 192.984 37.8739 193.552 37.8875C194.157 37.902 194.394 38.1469 194.451 38.8484Z" fill="#D7D7D7"/>
<path d="M169.623 41.0567C169.623 39.9987 169.623 38.9844 169.623 37.9434C170.217 37.9434 170.793 37.9434 171.37 37.9434C171.359 38.131 171.359 38.131 169.906 38.2445C169.906 38.6765 169.906 39.1106 169.906 39.6127C170.419 39.6127 170.908 39.6127 171.396 39.6127C171.397 39.6594 171.398 39.706 171.398 39.7527C170.915 39.7527 170.432 39.7527 169.913 39.7527C169.913 40.2902 169.913 40.757 169.913 41.2632C170.338 41.2632 170.767 41.2565 171.194 41.2693C171.275 41.2717 171.353 41.3521 171.432 41.3965C171.359 41.4464 171.286 41.5378 171.211 41.5396C170.691 41.5523 170.17 41.5463 169.623 41.5463C169.623 41.3748 169.623 41.2376 169.623 41.0567Z" fill="#D7D7D7"/>
<path d="M97.3151 39.5808C97.4104 39.5968 97.47 39.6074 97.5235 39.6316C97.5415 39.6398 97.5438 39.6825 97.5788 39.7815C97.0669 39.7815 96.5753 39.7815 96.0588 39.7815C96.0588 40.3077 96.0588 40.7633 96.0588 41.2627C96.4622 41.2627 96.8739 41.2527 97.2845 41.2696C97.3895 41.2739 97.491 41.3636 97.5941 41.414C97.4853 41.4587 97.3775 41.5387 97.2674 41.542C96.7911 41.5563 96.3141 41.5481 95.8047 41.5481C95.8047 40.3392 95.8047 39.1494 95.8047 37.9602C96.8571 37.805 97.4987 37.8862 97.5605 38.2182C97.3094 38.2182 97.0652 38.2182 96.8209 38.2182C96.5753 38.2182 96.3297 38.2182 96.0577 38.2182C96.0577 38.6605 96.0577 39.0823 96.0577 39.5808C96.4601 39.5808 96.8685 39.5808 97.3151 39.5808Z" fill="#D7D7D7"/>
<path d="M139.227 40.3402C139.227 39.5257 139.227 38.7572 139.227 37.9935C140.082 37.7517 140.781 37.9344 141.035 38.4569C141.307 39.0174 141.129 39.5807 140.513 40.0345C140.78 40.5214 141.049 41.0133 141.319 41.5052C141.294 41.5353 141.269 41.5654 141.243 41.5954C141.13 41.5129 140.984 41.4525 140.911 41.3433C140.759 41.1147 140.618 40.8706 140.521 40.6145C140.343 40.1433 140.055 39.915 139.497 40.1018C139.497 40.5513 139.497 41.0366 139.497 41.535C139.227 41.4494 139.227 41.4494 139.227 40.3402ZM139.718 39.7957C139.871 39.7908 140.027 39.7993 140.178 39.7786C140.645 39.7149 140.857 39.4746 140.873 39.0132C140.888 38.5629 140.684 38.2815 140.236 38.1917C140.004 38.1451 139.761 38.1526 139.488 38.1332C139.488 38.3106 139.488 38.431 139.488 38.5514C139.488 38.9053 139.481 39.2594 139.495 39.6127C139.497 39.675 139.584 39.7341 139.718 39.7957Z" fill="#D7D7D7"/>
<path d="M124.731 40.6629C124.897 40.9597 125.044 41.2279 125.19 41.4962C125.162 41.5278 125.133 41.5594 125.104 41.5909C124.995 41.5064 124.854 41.4424 124.784 41.333C124.626 41.0884 124.472 40.8325 124.375 40.5604C124.2 40.0748 123.881 39.9514 123.413 40.0898C123.251 40.5569 123.537 41.1026 123.14 41.5363C123.14 40.342 123.14 39.1476 123.14 37.9525C124.179 37.8107 124.701 37.9687 124.929 38.4955C125.167 39.043 124.99 39.5754 124.397 40.04C124.5 40.2345 124.606 40.4344 124.731 40.6629ZM124.752 38.8551C124.55 38.2235 124.272 38.0819 123.396 38.1817C123.396 38.7065 123.396 39.2344 123.396 39.7602C124.409 39.867 124.659 39.7116 124.752 38.8551Z" fill="#D7D7D7"/>
<path d="M103.337 41.3313C103.336 40.1829 103.336 39.0784 103.336 37.9291C103.719 37.9291 104.084 37.8989 104.442 37.937C104.865 37.9819 105.135 38.3107 105.159 38.8195C105.186 39.4166 105.192 40.0181 105.152 40.6141C105.107 41.2815 104.775 41.5632 104.098 41.5413C103.843 41.5331 103.591 41.4332 103.337 41.3313ZM103.648 38.1963C103.648 39.217 103.648 40.2378 103.648 41.2581C104.712 41.3161 104.885 41.1563 104.908 40.0938C104.913 39.8328 104.914 39.5714 104.907 39.3104C104.881 38.3162 104.734 38.1754 103.648 38.1963Z" fill="#D7D7D7"/>
<path d="M173.094 41.4258C172.627 41.4946 172.191 41.543 171.72 41.5954C171.72 40.3346 171.72 39.1451 171.72 37.9194C172.064 37.9194 172.401 37.8977 172.734 37.9246C173.204 37.9625 173.471 38.2774 173.497 38.7116C173.537 39.3844 173.532 40.0641 173.48 40.7358C173.462 40.9667 173.249 41.1826 173.094 41.4258ZM172.092 38.1815C172.048 38.2145 171.967 38.2472 171.966 38.2804C171.96 39.2741 171.961 40.2679 171.961 41.2584C173.074 41.3107 173.241 41.1566 173.263 40.0902C173.269 39.7985 173.268 39.5063 173.259 39.2147C173.231 38.3436 173.069 38.1903 172.092 38.1815Z" fill="#D7D7D7"/>
<path d="M120.798 39.4169C120.798 38.9708 120.789 38.5706 120.805 38.1714C120.809 38.0857 120.906 38.004 120.96 37.9204C121.001 38.0013 121.072 38.0802 121.077 38.1636C121.093 38.3931 121.082 38.6246 121.082 38.8552C121.082 39.0843 121.082 39.3134 121.082 39.5705C121.518 39.5705 121.938 39.5705 122.395 39.5705C122.395 39.1008 122.386 38.6429 122.402 38.1857C122.405 38.0959 122.5 38.0093 122.553 37.9212C122.6 37.9989 122.689 38.0763 122.689 38.1544C122.698 39.2744 122.695 40.3945 122.695 41.5184C122.395 41.4822 122.395 41.4822 122.394 40.8412C122.393 40.5355 122.394 40.2298 122.394 39.8959C121.962 39.8959 121.553 39.8959 121.082 39.8959C121.082 40.2533 121.098 40.6322 121.075 41.0087C121.064 41.1897 120.98 41.3661 120.929 41.5446C120.885 41.3737 120.809 41.2038 120.804 41.0316C120.787 40.5092 120.798 39.986 120.798 39.4169Z" fill="#D7D7D7"/>
<path d="M175.73 38.4312C175.74 38.6757 175.74 38.8871 175.74 39.0985C175.688 39.1034 175.636 39.1083 175.583 39.1132C175.556 38.9843 175.52 38.8565 175.502 38.7262C175.439 38.2643 175.259 38.1118 174.804 38.1154C174.384 38.1187 174.174 38.3339 174.168 38.7392C174.158 39.4171 174.158 40.0953 174.169 40.7732C174.174 41.1329 174.363 41.3546 174.737 41.3646C175.123 41.3749 175.457 41.2781 175.498 40.8155C175.521 40.5563 175.502 40.2935 175.502 40.0067C175.261 39.9777 175.006 39.9471 174.751 39.9165C174.752 39.8686 174.753 39.8208 174.755 39.7729C175.081 39.7729 175.407 39.7729 175.775 39.7729C175.775 40.0434 175.783 40.3495 175.773 40.6549C175.75 41.3387 175.47 41.6063 174.802 41.5994C174.181 41.593 173.901 41.3045 173.891 40.6393C173.882 40.0383 173.889 39.4372 173.889 38.8361C173.889 38.3977 174.016 38.0459 174.5 37.9339C175.07 37.802 175.456 37.9478 175.73 38.4312Z" fill="#D7D7D7"/>
<path d="M155.776 40.4205C155.984 40.7985 156.178 41.1455 156.372 41.4925C156.344 41.5244 156.316 41.5563 156.288 41.5882C156.178 41.5067 156.036 41.4467 155.967 41.3393C155.81 41.0953 155.659 40.8391 155.56 40.5679C155.387 40.0904 155.075 39.9434 154.552 40.1038C154.552 40.3484 154.575 40.6228 154.545 40.8915C154.521 41.1112 154.692 41.3972 154.329 41.5964C154.329 40.3536 154.329 39.168 154.329 37.9763C155.179 37.7623 155.842 37.9404 156.093 38.4625C156.36 39.0159 156.184 39.5704 155.579 40.0371C155.639 40.1516 155.7 40.2705 155.776 40.4205ZM154.55 38.8221C154.55 39.1393 154.55 39.4566 154.55 39.7916C155.035 39.7777 155.555 39.9236 155.791 39.4433C155.917 39.1865 155.911 38.7548 155.775 38.5042C155.531 38.0526 155.031 38.1339 154.55 38.1599C154.55 38.3699 154.55 38.5512 154.55 38.8221Z" fill="#D7D7D7"/>
<path d="M138.647 41.2394C138.267 41.6778 137.807 41.6878 137.359 41.5075C136.946 41.3415 136.888 40.9415 136.891 40.5348C136.898 39.6754 136.893 38.8159 136.893 37.9564C136.941 37.937 136.988 37.9176 137.036 37.8982C137.081 38.0019 137.165 38.1051 137.166 38.2095C137.178 39.0255 137.17 39.8417 137.176 40.6578C137.179 40.9597 137.289 41.2381 137.614 41.2705C137.848 41.2938 138.158 41.26 138.316 41.1193C138.468 40.9844 138.518 40.6807 138.526 40.4479C138.552 39.7559 138.534 39.0624 138.537 38.3694C138.537 38.223 138.549 38.0766 138.557 37.9114C138.864 38.0724 138.913 40.5306 138.647 41.2394Z" fill="#D7D7D7"/>
<path d="M112.167 39.0498C112.167 38.6449 112.167 38.2855 112.167 37.9261C112.219 37.9171 112.272 37.908 112.324 37.8989C112.357 37.9865 112.417 38.0739 112.417 38.1617C112.422 39.0085 112.432 39.8558 112.41 40.7022C112.393 41.3316 112.062 41.6129 111.431 41.5964C110.84 41.5809 110.54 41.2823 110.533 40.6626C110.522 39.7579 110.53 38.8529 110.53 37.9481C110.58 37.932 110.63 37.9158 110.68 37.8997C110.72 38.0101 110.795 38.12 110.796 38.2309C110.807 38.9853 110.799 39.7399 110.803 40.4945C110.806 41.069 111.015 41.3224 111.484 41.3372C111.9 41.3502 112.146 41.0712 112.163 40.5272C112.179 40.0504 112.167 39.5726 112.167 39.0498Z" fill="#D7D7D7"/>
<path d="M106.901 41.3258C107.336 41.4053 107.69 41.3486 107.831 40.9058C107.965 40.4879 107.759 40.1517 107.278 39.9282C107.041 39.8184 106.793 39.7216 106.58 39.5764C106.2 39.318 106.101 38.767 106.325 38.3315C106.513 37.9668 107.077 37.7895 107.549 37.9472C107.932 38.0753 108.18 38.5162 108.101 38.956C108.088 39.029 108.001 39.0887 107.875 39.2444C107.841 38.9712 107.829 38.8244 107.804 38.6798C107.751 38.3777 107.599 38.159 107.269 38.1378C106.964 38.1182 106.672 38.1608 106.547 38.4997C106.43 38.8152 106.454 39.1226 106.743 39.3296C106.952 39.4798 107.236 39.5355 107.425 39.7026C107.688 39.9346 108.004 40.1977 108.099 40.5081C108.276 41.0882 107.878 41.5571 107.298 41.5988C106.586 41.6502 106.26 41.3042 106.35 40.4054C106.416 40.4974 106.492 40.5841 106.546 40.6826C106.659 40.8881 106.761 41.0999 106.901 41.3258Z" fill="#D7D7D7"/>
<path d="M163.042 41.5998C162.233 41.5801 161.978 41.3323 161.968 40.575C161.961 39.9901 161.957 39.4048 161.971 38.8202C161.986 38.1825 162.287 37.8991 162.923 37.8894C163.528 37.8801 163.84 38.1459 163.87 38.7712C163.9 39.4162 163.898 40.0645 163.873 40.71C163.85 41.2963 163.667 41.4752 163.042 41.5998ZM162.292 40.9345C162.456 41.3053 162.743 41.4082 163.123 41.3206C163.492 41.2354 163.604 40.9644 163.61 40.6334C163.619 40.0339 163.626 39.4337 163.608 38.8345C163.595 38.3753 163.332 38.1233 162.928 38.1275C162.511 38.1317 162.253 38.3802 162.247 38.8328C162.239 39.5088 162.257 40.1852 162.292 40.9345Z" fill="#D7D7D7"/>
<path d="M153.126 41.5934C152.233 41.5974 151.983 41.355 151.977 40.511C151.973 39.9414 151.965 39.3715 151.981 38.8024C151.998 38.1856 152.284 37.9163 152.904 37.8926C153.517 37.8692 153.844 38.1269 153.875 38.7422C153.908 39.4175 153.897 40.0963 153.877 40.7728C153.863 41.2201 153.649 41.5337 153.126 41.5934ZM153.61 40.7746C153.614 40.1444 153.63 39.514 153.62 38.884C153.612 38.3872 153.362 38.1247 152.941 38.1268C152.511 38.129 152.262 38.3883 152.254 38.8745C152.245 39.4586 152.251 40.0431 152.253 40.6274C152.254 40.9909 152.402 41.2748 152.778 41.3332C153.156 41.392 153.486 41.2909 153.61 40.7746Z" fill="#D7D7D7"/>
<path d="M115.778 39.8123C115.379 39.6499 115.036 39.4663 114.982 39.0217C114.936 38.6419 114.969 38.2591 115.344 38.0468C115.711 37.8386 116.12 37.8118 116.487 38.0412C116.886 38.2911 116.868 38.6989 116.704 39.151C116.656 39.0499 116.572 38.9506 116.567 38.8475C116.549 38.4688 116.435 38.1713 116.008 38.1366C115.682 38.1103 115.373 38.1829 115.276 38.5506C115.169 38.9546 115.296 39.2778 115.692 39.4666C115.927 39.5788 116.173 39.6724 116.393 39.809C116.841 40.087 117.002 40.6245 116.806 41.0989C116.638 41.5061 116.152 41.6988 115.63 41.5654C115.184 41.4514 114.99 41.1201 114.998 40.3209C115.143 40.4807 115.261 40.5501 115.276 40.6369C115.342 41.0269 115.434 41.3744 115.932 41.3637C116.281 41.3562 116.517 41.1966 116.596 40.8441C116.684 40.4463 116.489 40.1368 116.018 39.9221C115.949 39.8903 115.879 39.858 115.778 39.8123Z" fill="#D7D7D7"/>
<path d="M182.15 39.8964C181.913 40.3821 181.712 40.8473 181.481 41.2976C181.418 41.4203 181.267 41.498 181.157 41.5963C181.124 41.5644 181.091 41.5325 181.058 41.5006C181.291 41.0203 181.546 40.5488 181.746 40.0549C181.819 39.8737 181.822 39.6149 181.75 39.4337C181.554 38.939 181.301 38.4668 181.065 37.9749C181.393 37.9439 181.391 37.9445 181.698 38.6288C181.843 38.9501 181.994 39.2683 182.163 39.6326C182.558 39.059 182.669 38.3404 183.117 37.8494C183.178 37.8877 183.238 37.926 183.299 37.9644C183.064 38.4576 182.809 38.943 182.604 39.4486C182.535 39.6185 182.536 39.8639 182.605 40.0335C182.809 40.5291 183.063 41.0039 183.297 41.4868C183.267 41.5191 183.237 41.5513 183.208 41.5836C183.097 41.4927 182.946 41.4237 182.883 41.307C182.632 40.8361 182.408 40.3505 182.15 39.8964Z" fill="#D7D7D7"/>
<path d="M113.607 39.4973C113.793 39.58 113.95 39.6418 114.101 39.7178C114.656 39.999 114.878 40.5174 114.681 41.0634C114.532 41.4739 114.105 41.6745 113.573 41.5832C113.069 41.4966 112.846 41.1495 112.969 40.4107C113.028 40.5028 113.12 40.5882 113.141 40.6884C113.21 41.0202 113.288 41.3331 113.705 41.3604C114.04 41.3823 114.321 41.2853 114.429 40.9304C114.555 40.5193 114.404 40.2021 114.045 39.993C113.847 39.8781 113.622 39.811 113.417 39.708C112.862 39.4292 112.678 38.9523 112.905 38.4056C113.082 37.9798 113.655 37.7723 114.169 37.9476C114.592 38.0917 114.745 38.4392 114.67 39.0915C114.63 39.1056 114.59 39.1197 114.551 39.1338C114.508 39.0138 114.442 38.8965 114.427 38.7731C114.372 38.3222 114.152 38.0711 113.754 38.147C113.533 38.1891 113.238 38.3532 113.16 38.5392C112.993 38.9384 113.163 39.2874 113.607 39.4973Z" fill="#D7D7D7"/>
<path d="M136.143 41.4498C135.108 41.831 134.58 41.4778 134.577 40.4377C134.575 39.8828 134.568 39.3276 134.583 38.7731C134.599 38.1668 134.898 37.8996 135.529 37.8944C136.126 37.8894 136.434 38.1514 136.453 38.7396C136.475 39.417 136.481 40.0968 136.445 40.7729C136.433 40.9964 136.268 41.2117 136.143 41.4498ZM134.843 39.1094C134.845 39.6483 134.837 40.1874 134.854 40.7258C134.866 41.103 135.081 41.3346 135.46 41.3483C135.829 41.3617 136.162 41.2379 136.179 40.8065C136.208 40.1006 136.221 39.3912 136.181 38.6866C136.156 38.2584 135.751 38.0384 135.335 38.1498C134.876 38.273 134.828 38.6302 134.843 39.1094Z" fill="#D7D7D7"/>
<path d="M180.435 41.2637C180.524 41.2637 180.577 41.2486 180.615 41.2668C180.705 41.3108 180.787 41.3704 180.873 41.4237C180.79 41.4648 180.708 41.5395 180.625 41.5414C180.12 41.5525 179.615 41.5469 179.086 41.5469C179.086 40.3277 179.086 39.1368 179.086 37.947C180.297 37.8279 180.747 37.8831 180.843 38.2103C180.334 38.2103 179.838 38.2103 179.343 38.2103C179.343 38.6887 179.343 39.1141 179.343 39.6052C179.854 39.6052 180.343 39.6052 180.833 39.6052C180.835 39.6525 180.837 39.6998 180.839 39.7471C180.359 39.7471 179.879 39.7471 179.359 39.7471C179.359 40.2862 179.359 40.7516 179.359 41.2637C179.693 41.2637 180.043 41.2637 180.435 41.2637Z" fill="#D7D7D7"/>
<path d="M195.988 41.5467C195.577 41.5467 195.21 41.5467 194.817 41.5467C194.817 40.3316 194.817 39.1401 194.817 37.9489C196.034 37.8159 196.511 37.8825 196.539 38.2168C196.292 38.2168 196.048 38.2168 195.803 38.2168C195.574 38.2168 195.345 38.2168 195.085 38.2168C195.085 38.6707 195.085 39.1052 195.085 39.6042C195.582 39.6042 196.072 39.6042 196.561 39.6042C196.563 39.6548 196.565 39.7054 196.566 39.756C196.076 39.756 195.585 39.756 195.075 39.756C195.075 40.3 195.075 40.7568 195.075 41.2634C195.469 41.2634 195.865 41.2511 196.26 41.2709C196.378 41.2768 196.492 41.3721 196.607 41.4264C196.493 41.4665 196.38 41.5153 196.262 41.5434C196.189 41.5608 196.109 41.5467 195.988 41.5467Z" fill="#D7D7D7"/>
<path d="M158.968 41.3213C158.715 40.7459 158.479 40.2026 158.243 39.659C157.55 40.1541 157.758 40.8813 157.704 41.682C157.574 41.5038 157.485 41.4386 157.485 41.3727C157.476 40.2793 157.476 39.1858 157.483 38.0924C157.483 38.0286 157.559 37.9653 157.702 37.9208C157.702 38.4999 157.702 39.0789 157.702 39.7629C158.2 39.0809 158.624 38.4997 159.053 37.9226C159.065 37.9063 159.137 37.9346 159.234 37.9513C159.033 38.3012 158.862 38.6418 158.65 38.9539C158.448 39.2505 158.42 39.5062 158.593 39.8398C158.869 40.3697 159.082 40.9317 159.259 41.5622C159.168 41.4926 159.077 41.423 158.968 41.3213Z" fill="#D7D7D7"/>
<path d="M144.312 40.7079C144.312 40.9228 144.327 41.094 144.306 41.2606C144.294 41.3589 144.224 41.4499 144.18 41.5442C144.127 41.4427 144.039 41.3448 144.028 41.2389C144.004 41.0105 144.02 40.778 144.02 40.5472C144.02 40.335 144.02 40.1229 144.02 39.8894C143.579 39.8894 143.171 39.8894 142.754 39.8894C142.594 40.4282 142.868 41.0381 142.612 41.5576C142.559 41.5505 142.507 41.5433 142.455 41.5362C142.455 40.345 142.455 39.1538 142.455 37.9626C142.496 37.9434 142.537 37.9242 142.578 37.905C142.623 38.0401 142.693 38.1726 142.707 38.3107C142.729 38.5239 142.711 38.741 142.711 38.9564C142.711 39.1541 142.711 39.3518 142.711 39.5987C142.943 39.5987 143.153 39.5987 143.364 39.5987C143.563 39.5987 143.762 39.5987 144.021 39.5987C144.021 39.1142 144.013 38.6439 144.029 38.1745C144.032 38.0889 144.133 38.0065 144.189 37.9226C144.23 38.0049 144.306 38.0868 144.307 38.1694C144.316 39.0003 144.312 39.8313 144.312 40.7079Z" fill="#D7D7D7"/>
<path d="M98.7397 41.5935C97.9952 41.5839 97.7644 41.3638 97.7511 40.6592C97.7401 40.0736 97.7431 39.4876 97.7485 38.9019C97.7556 38.141 98.0292 37.8512 98.6815 37.8988C99.2482 37.9402 99.4696 38.2982 99.2964 39.0767C99.2567 38.9705 99.1907 38.8665 99.1821 38.7579C99.1522 38.377 99.0419 38.1057 98.5814 38.1121C98.1271 38.1184 97.9889 38.3986 97.9809 38.7701C97.9666 39.4324 97.9734 40.0957 97.9923 40.758C98.0029 41.1254 98.1713 41.378 98.5887 41.3629C98.9847 41.3485 99.1699 41.1371 99.1769 40.7454C99.1793 40.6118 99.2156 40.4789 99.2546 40.2296C99.5825 40.9001 99.3649 41.393 98.7397 41.5935Z" fill="#D7D7D7"/>
<path d="M86.6413 41.18C86.6087 40.2737 86.5653 39.4001 86.5825 38.5278C86.5913 38.081 86.9376 37.9099 87.3495 37.8974C87.7522 37.8851 88.0873 37.998 88.1712 38.4574C88.2058 38.6468 88.2197 38.84 88.243 39.0315C88.1904 39.0467 88.1379 39.0619 88.0853 39.0771C88.0498 38.9584 87.9962 38.8418 87.9821 38.7206C87.9258 38.2349 87.7552 38.0889 87.3042 38.1192C86.9496 38.1431 86.8065 38.3724 86.7987 38.6667C86.7796 39.3884 86.7834 40.1117 86.8081 40.8332C86.8205 41.196 87.0452 41.3858 87.4213 41.3606C87.791 41.3358 87.9693 41.1364 87.9809 40.7654C87.9854 40.6236 88.0343 40.4833 88.1001 40.3521C88.3167 40.8542 88.1868 41.3271 87.8287 41.5146C87.4324 41.722 86.9652 41.602 86.6413 41.18Z" fill="#D7D7D7"/>
<path d="M130.123 37.9207C130.278 37.9652 130.389 38.0098 130.5 38.0543C130.399 38.1076 130.3 38.2022 130.197 38.2069C129.8 38.225 129.403 38.2142 128.959 38.2142C128.959 38.4585 128.959 38.6691 128.959 38.8796C128.959 39.0933 128.959 39.3069 128.959 39.6045C129.484 39.6045 129.984 39.6045 130.484 39.6045C130.484 39.6559 130.484 39.7073 130.484 39.7587C129.998 39.7587 129.512 39.7587 128.993 39.7587C128.993 40.2929 128.993 40.7581 128.993 41.2662C129.41 41.2662 129.822 41.2585 130.233 41.2718C130.331 41.275 130.426 41.3485 130.522 41.3896C130.421 41.4411 130.321 41.5338 130.218 41.5371C129.73 41.5528 129.241 41.5441 128.735 41.5441C128.735 40.3249 128.735 39.1448 128.735 37.9207C129.195 37.9207 129.637 37.9207 130.123 37.9207Z" fill="#D7D7D7"/>
<path d="M109.386 37.9038C109.996 38.069 110.165 38.394 109.933 39.0825C109.901 38.9451 109.859 38.8092 109.837 38.6701C109.785 38.3262 109.646 38.1013 109.244 38.1127C108.858 38.1235 108.665 38.3166 108.66 38.6776C108.65 39.4006 108.658 40.1241 108.672 40.8471C108.679 41.1775 108.872 41.3554 109.202 41.3611C109.529 41.3668 109.773 41.2491 109.822 40.8828C109.846 40.7026 109.879 40.5234 109.965 40.3539C110.133 40.7314 110.147 41.1486 109.828 41.3752C109.591 41.5435 109.191 41.584 108.889 41.5322C108.507 41.4668 108.409 41.0956 108.405 40.7347C108.4 40.1187 108.398 39.5027 108.403 38.8867C108.409 38.1312 108.592 37.944 109.386 37.9038Z" fill="#D7D7D7"/>
<path d="M150.326 38.6001C150.326 38.9661 150.326 39.2879 150.326 39.6523C150.815 39.6523 151.283 39.6523 151.757 39.6523C151.709 39.9338 151.709 39.9338 151.153 39.9338C150.894 39.9339 150.634 39.9338 150.331 39.9338C150.331 40.4838 150.331 40.9995 150.331 41.5152C150.285 41.5343 150.239 41.5534 150.194 41.5725C150.141 41.4807 150.044 41.3893 150.043 41.2971C150.032 40.1909 150.036 39.0847 150.036 37.947C150.628 37.947 151.202 37.947 151.776 37.947C151.795 37.9793 151.814 38.0117 151.833 38.044C151.74 38.0972 151.65 38.1902 151.554 38.1964C151.248 38.2162 150.938 38.2233 150.633 38.1984C150.337 38.1743 150.297 38.3246 150.326 38.6001Z" fill="#D7D7D7"/>
<path d="M177.936 41.3642C177.831 41.4523 177.723 41.5361 177.613 41.5396C177.136 41.5545 176.658 41.546 176.147 41.546C176.147 40.3473 176.147 39.1563 176.147 37.9192C176.663 37.9192 177.182 37.9145 177.7 37.9253C177.764 37.9266 177.827 38.0101 177.89 38.0555C177.821 38.1089 177.753 38.2061 177.681 38.2086C177.267 38.2233 176.852 38.2158 176.408 38.2158C176.408 38.6706 176.408 39.1053 176.408 39.6142C176.906 39.6142 177.393 39.6142 177.88 39.6142C177.88 39.6643 177.881 39.7143 177.881 39.7644C177.397 39.7644 176.913 39.7644 176.405 39.7644C176.405 40.2956 176.405 40.7517 176.405 41.2307C176.905 41.2609 177.418 41.2919 177.936 41.3642Z" fill="#D7D7D7"/>
<path d="M188.261 39.5249C188.422 38.9622 188.57 38.4351 188.719 37.9081C188.774 37.9001 188.83 37.8922 188.885 37.8843C189.299 39.0679 189.56 40.2986 189.925 41.5199C189.678 41.4735 189.678 41.4735 189.382 40.5196C189.288 40.5114 189.184 40.4956 189.08 40.4942C188.269 40.4835 188.272 40.4851 188.035 41.2788C188.003 41.3857 187.926 41.4793 187.87 41.579C187.822 41.5592 187.773 41.5395 187.724 41.5197C187.899 40.8666 188.074 40.2136 188.261 39.5249ZM188.842 38.3293C188.654 38.953 188.466 39.5766 188.269 40.2306C188.659 40.2306 188.979 40.2306 189.327 40.2306C189.174 39.6078 189.025 38.9996 188.842 38.3293Z" fill="#D7D7D7"/>
<path d="M183.642 39.7863C183.652 40.1702 183.652 40.5088 183.674 40.8459C183.697 41.1951 183.896 41.3736 184.249 41.3629C184.584 41.3527 184.804 41.2086 184.832 40.8454C184.845 40.678 184.872 40.5116 184.96 40.3539C185.147 40.7093 185.114 41.0588 184.881 41.3503C184.627 41.6671 184.251 41.6547 183.902 41.5481C183.547 41.4394 183.423 41.1371 183.419 40.7894C183.411 40.1281 183.406 39.4665 183.415 38.8053C183.422 38.1683 183.679 37.9 184.256 37.8939C184.791 37.8882 185.048 38.1618 185.084 38.7774C185.09 38.8656 185.085 38.9544 185.085 39.0429C185.045 39.0545 185.006 39.066 184.966 39.0776C184.926 38.969 184.863 38.8629 184.851 38.7514C184.811 38.3762 184.703 38.1029 184.242 38.1114C183.785 38.1199 183.667 38.404 183.645 38.7717C183.626 39.0936 183.642 39.4174 183.642 39.7863Z" fill="#D7D7D7"/>
<path d="M127.658 40.1576C127.928 39.3903 127.987 38.5868 128.344 37.8904C128.399 37.9076 128.454 37.9249 128.509 37.9421C128.406 38.3337 128.307 38.7264 128.199 39.1165C127.994 39.8553 127.786 40.5932 127.573 41.3296C127.55 41.4066 127.492 41.4788 127.433 41.5343C127.421 41.5453 127.291 41.4795 127.278 41.4315C126.95 40.2743 126.63 39.1148 126.297 37.9104C126.583 38.0168 126.583 38.0168 126.944 39.3579C127.088 39.8893 127.231 40.4206 127.408 41.078C127.511 40.7019 127.58 40.4481 127.658 40.1576Z" fill="#D7D7D7"/>
<path d="M100.482 40.5231C100.482 39.7398 100.482 39.0024 100.482 38.2938C100.256 38.0611 99.8137 38.4382 99.6821 37.9689C100.719 37.7864 101.502 37.8767 101.553 38.1992C101.321 38.1992 101.094 38.1992 100.801 38.1992C100.801 39.0508 100.801 39.8755 100.801 40.7003C100.801 40.916 100.815 41.1333 100.792 41.3465C100.784 41.4195 100.681 41.4821 100.622 41.5495C100.576 41.4845 100.493 41.4218 100.489 41.3543C100.473 41.0933 100.482 40.8308 100.482 40.5231Z" fill="#D7D7D7"/>
<path d="M132.573 37.9189C132.697 38.019 132.823 38.1075 132.879 38.2284C133.07 38.6462 133.238 39.0752 133.424 39.5247C133.809 39.0183 133.816 38.3061 134.375 37.9245C133.944 39.0907 133.301 40.1903 133.646 41.5172C133.604 41.5337 133.563 41.5502 133.522 41.5667C133.451 41.5122 133.377 41.4611 133.312 41.4009C133.296 41.3864 133.304 41.341 133.308 41.3111C133.489 40.1517 133.034 39.1469 132.548 38.1476C132.518 38.086 132.543 37.9979 132.573 37.9189Z" fill="#D7D7D7"/>
<path d="M119.516 39.9714C119.516 39.3723 119.516 38.8193 119.516 38.27C119.248 38.2103 118.999 38.1559 118.751 38.0937C118.743 38.0916 118.755 38.0109 118.76 37.916C119.314 37.916 119.863 37.9115 120.411 37.9218C120.476 37.9231 120.541 38.0045 120.605 38.0487C120.531 38.1003 120.462 38.1866 120.382 38.1965C120.203 38.2189 120.019 38.2035 119.81 38.2035C119.81 39.3348 119.81 40.4233 119.81 41.5118C119.77 41.5328 119.729 41.5539 119.688 41.5749C119.631 41.4869 119.527 41.4007 119.524 41.3105C119.506 40.8802 119.516 40.4487 119.516 39.9714Z" fill="#D7D7D7"/>
<path d="M168.709 41.2736C168.96 41.2912 169.167 41.3088 169.375 41.3263C169.369 41.3865 169.363 41.4467 169.357 41.5069C168.867 41.5069 168.378 41.5069 167.877 41.5069C167.877 40.3232 167.877 39.1315 167.877 37.9397C167.923 37.9254 167.97 37.9111 168.016 37.8967C168.053 38.0139 168.122 38.1306 168.123 38.2482C168.133 39.0937 168.128 39.9394 168.128 40.7851C168.128 40.9343 168.128 41.0836 168.128 41.2736C168.334 41.2736 168.499 41.2736 168.709 41.2736Z" fill="#D7D7D7"/>
<path d="M125.81 38.0452C125.813 39.135 125.817 40.18 125.807 41.2249C125.806 41.3312 125.717 41.4366 125.669 41.5424C125.617 41.4409 125.521 41.3399 125.52 41.2378C125.509 40.2237 125.514 39.2094 125.513 38.1952C125.513 37.9801 125.536 37.8049 125.81 38.0452Z" fill="#D7D7D7"/>
<path d="M105.836 39.509C105.836 40.1236 105.842 40.6921 105.83 41.2602C105.828 41.3549 105.747 41.4479 105.702 41.5417C105.647 41.4441 105.544 41.347 105.543 41.2487C105.532 40.235 105.533 39.2211 105.542 38.2073C105.543 38.1125 105.624 38.0185 105.667 37.9241C105.724 38.0222 105.824 38.1184 105.828 38.2189C105.847 38.6328 105.836 39.0481 105.836 39.509Z" fill="#D7D7D7"/>
<path d="M101.897 41.2214C102.041 41.2271 102.164 41.2642 102.287 41.3013C102.2 41.4609 102.113 41.6206 102.025 41.7803C101.975 41.7615 101.925 41.7427 101.875 41.7239C101.875 41.5669 101.875 41.4099 101.897 41.2214Z" fill="#D7D7D7"/>
</g>
<defs>
<clipPath id="clip0_45_1232">
<rect width="217" height="55" fill="white"/>
</clipPath>
</defs>
</svg>
